<svg width="118" height="45" viewBox="0 0 118 45" fill="none" xmlns="http://www.w3.org/2000/svg">
<rect width="118" height="35.3239" rx="12" fill="white"/>
<path d="M29.3752 19.7498H31.7483C31.7092 20.4822 31.509 21.1292 31.1477 21.6907C30.7912 22.2473 30.2956 22.6843 29.6609 23.0017C29.0261 23.3142 28.2717 23.4705 27.3977 23.4705C26.6994 23.4705 26.0744 23.3508 25.5227 23.1116C24.9709 22.8723 24.5022 22.5305 24.1164 22.0862C23.7356 21.637 23.4426 21.0974 23.2375 20.4675C23.0373 19.8328 22.9372 19.1174 22.9372 18.3215V17.6697C22.9372 16.8738 23.0422 16.1584 23.2522 15.5237C23.4621 14.8889 23.7624 14.3469 24.1531 13.8977C24.5437 13.4485 25.0124 13.1042 25.5593 12.865C26.1062 12.6257 26.7165 12.5061 27.3904 12.5061C28.2986 12.5061 29.0652 12.6697 29.6902 12.9968C30.3152 13.324 30.7986 13.7732 31.1404 14.3445C31.487 14.9158 31.6946 15.5676 31.7629 16.3H29.3826C29.363 15.885 29.2849 15.5359 29.1482 15.2527C29.0115 14.9646 28.8015 14.7473 28.5183 14.6008C28.2351 14.4543 27.8591 14.3811 27.3904 14.3811C27.0486 14.3811 26.7483 14.4446 26.4895 14.5715C26.2356 14.6985 26.0232 14.8962 25.8523 15.1648C25.6863 15.4333 25.5618 15.7751 25.4787 16.1902C25.3957 16.6003 25.3542 17.0886 25.3542 17.655V18.3215C25.3542 18.8831 25.3909 19.3689 25.4641 19.7791C25.5373 20.1892 25.6545 20.5286 25.8157 20.7971C25.9817 21.0657 26.1941 21.2659 26.4529 21.3977C26.7117 21.5295 27.0266 21.5955 27.3977 21.5955C27.8225 21.5955 28.1765 21.5295 28.4597 21.3977C28.7429 21.261 28.9602 21.0559 29.1116 20.7825C29.2629 20.509 29.3508 20.1648 29.3752 19.7498ZM32.6272 19.4421V19.2883C32.6272 18.7073 32.7102 18.1726 32.8762 17.6843C33.0422 17.1912 33.2864 16.7639 33.6086 16.4026C33.9309 16.0413 34.3264 15.7605 34.7952 15.5603C35.2639 15.3552 35.801 15.2527 36.4065 15.2527C37.0217 15.2527 37.5637 15.3552 38.0325 15.5603C38.5061 15.7605 38.904 16.0413 39.2263 16.4026C39.5486 16.7639 39.7927 17.1912 39.9587 17.6843C40.1247 18.1726 40.2077 18.7073 40.2077 19.2883V19.4421C40.2077 20.0183 40.1247 20.553 39.9587 21.0461C39.7927 21.5344 39.5486 21.9617 39.2263 22.3279C38.904 22.6892 38.5085 22.97 38.0398 23.1702C37.571 23.3704 37.0315 23.4705 36.4211 23.4705C35.8157 23.4705 35.2761 23.3704 34.8025 23.1702C34.3288 22.97 33.9309 22.6892 33.6086 22.3279C33.2864 21.9617 33.0422 21.5344 32.8762 21.0461C32.7102 20.553 32.6272 20.0183 32.6272 19.4421ZM34.9197 19.2883V19.4421C34.9197 19.7546 34.9441 20.0476 34.9929 20.321C35.0466 20.5945 35.1321 20.8337 35.2493 21.0388C35.3664 21.2439 35.5202 21.405 35.7107 21.5222C35.906 21.6345 36.1428 21.6907 36.4211 21.6907C36.6994 21.6907 36.9338 21.6345 37.1243 21.5222C37.3147 21.405 37.4685 21.2439 37.5857 21.0388C37.7029 20.8337 37.7859 20.5945 37.8347 20.321C37.8884 20.0476 37.9153 19.7546 37.9153 19.4421V19.2883C37.9153 18.9807 37.8884 18.6926 37.8347 18.4241C37.7859 18.1506 37.7029 17.9089 37.5857 17.699C37.4685 17.489 37.3122 17.3254 37.1169 17.2083C36.9265 17.0911 36.6897 17.0325 36.4065 17.0325C36.133 17.0325 35.9011 17.0911 35.7107 17.2083C35.5202 17.3254 35.3664 17.489 35.2493 17.699C35.1321 17.9089 35.0466 18.1506 34.9929 18.4241C34.9441 18.6926 34.9197 18.9807 34.9197 19.2883ZM43.6501 17.0911V23.324H41.3577V15.3992H43.511L43.6501 17.0911ZM43.3498 19.0833L42.7785 19.0979C42.7785 18.5022 42.8518 17.9675 42.9983 17.4939C43.1448 17.0203 43.3523 16.6174 43.6208 16.2854C43.8943 15.9485 44.219 15.6921 44.595 15.5164C44.9758 15.3406 45.3957 15.2527 45.8547 15.2527C46.2258 15.2527 46.5652 15.3064 46.8728 15.4138C47.1804 15.5212 47.4441 15.6946 47.6638 15.9338C47.8884 16.1682 48.0593 16.4807 48.1765 16.8713C48.2937 17.2571 48.3523 17.7332 48.3523 18.2996V23.324H46.0525V18.2922C46.0525 17.9602 46.0061 17.7039 45.9133 17.5232C45.8205 17.3425 45.6838 17.2156 45.5032 17.1423C45.3274 17.0691 45.1125 17.0325 44.8586 17.0325C44.5901 17.0325 44.3606 17.0862 44.1702 17.1936C43.9797 17.2961 43.8235 17.4402 43.7014 17.6257C43.5793 17.8113 43.489 18.0286 43.4304 18.2776C43.3767 18.5266 43.3498 18.7952 43.3498 19.0833ZM53.8747 15.3992V17.0032H49.1726V15.3992H53.8747ZM50.2493 13.4363H52.5417V20.8411C52.5417 21.0608 52.5686 21.2292 52.6223 21.3464C52.676 21.4636 52.7639 21.5466 52.886 21.5955C53.008 21.6394 53.1643 21.6614 53.3547 21.6614C53.4914 21.6614 53.6086 21.6565 53.7063 21.6467C53.8039 21.637 53.8943 21.6248 53.9773 21.6101V23.2654C53.782 23.3289 53.5744 23.3777 53.3547 23.4119C53.135 23.4509 52.8957 23.4705 52.6369 23.4705C52.1438 23.4705 51.7165 23.3899 51.3552 23.2288C50.9988 23.0676 50.7253 22.8137 50.5349 22.467C50.3445 22.1155 50.2493 21.6589 50.2493 21.0974V13.4363ZM59.1702 21.4343V18.0359C59.1702 17.7966 59.1335 17.5916 59.0603 17.4207C58.987 17.2498 58.8723 17.1155 58.716 17.0178C58.5598 16.9202 58.3572 16.8713 58.1081 16.8713C57.8982 16.8713 57.7151 16.908 57.5588 16.9812C57.4075 17.0544 57.2903 17.1594 57.2073 17.2961C57.1291 17.4329 57.0901 17.6013 57.0901 17.8015H54.8049C54.8049 17.4451 54.8855 17.113 55.0466 16.8054C55.2077 16.4978 55.4372 16.2268 55.7351 15.9924C56.0378 15.7581 56.3992 15.5774 56.8191 15.4504C57.239 15.3186 57.7102 15.2527 58.2327 15.2527C58.8528 15.2527 59.4045 15.3577 59.8879 15.5676C60.3762 15.7727 60.7619 16.0828 61.0452 16.4978C61.3284 16.908 61.47 17.4255 61.47 18.0505V21.3684C61.47 21.8469 61.4968 22.2229 61.5505 22.4963C61.6091 22.7649 61.6921 22.9993 61.7995 23.1995V23.324H59.4924C59.385 23.0945 59.3044 22.8113 59.2507 22.4744C59.197 22.1326 59.1702 21.7859 59.1702 21.4343ZM59.4558 18.49L59.4704 19.7498H58.3352C58.0813 19.7498 57.8616 19.7815 57.676 19.845C57.4953 19.9084 57.3489 19.9963 57.2366 20.1086C57.1243 20.2161 57.0412 20.343 56.9875 20.4895C56.9387 20.6311 56.9143 20.7874 56.9143 20.9583C56.9143 21.1194 56.9534 21.2659 57.0315 21.3977C57.1096 21.5247 57.217 21.6248 57.3537 21.698C57.4905 21.7712 57.6492 21.8079 57.8298 21.8079C58.1277 21.8079 58.3816 21.7493 58.5915 21.6321C58.8064 21.5149 58.9724 21.3733 59.0896 21.2073C59.2068 21.0364 59.2654 20.8777 59.2654 20.7312L59.8147 21.6833C59.7268 21.8787 59.6194 22.0813 59.4924 22.2913C59.3655 22.4963 59.2043 22.6892 59.009 22.8699C58.8137 23.0457 58.5769 23.1897 58.2986 23.302C58.0251 23.4143 57.6955 23.4705 57.3098 23.4705C56.8118 23.4705 56.3601 23.3704 55.9548 23.1702C55.5495 22.9651 55.2248 22.6843 54.9807 22.3279C54.7414 21.9714 54.6218 21.5613 54.6218 21.0974C54.6218 20.6824 54.6975 20.3137 54.8489 19.9915C55.0002 19.6692 55.2273 19.3958 55.53 19.1711C55.8376 18.9465 56.2234 18.7781 56.6872 18.6658C57.1511 18.5486 57.6931 18.49 58.3132 18.49H59.4558ZM66.282 21.6907C66.5261 21.6907 66.7385 21.6443 66.9192 21.5515C67.0998 21.4587 67.239 21.3293 67.3367 21.1633C67.4392 20.9924 67.4905 20.7874 67.4905 20.5481H69.6438C69.6438 21.1243 69.4949 21.6321 69.197 22.0715C68.904 22.511 68.5085 22.8552 68.0105 23.1042C67.5124 23.3484 66.9509 23.4705 66.3259 23.4705C65.7107 23.4705 65.1736 23.3704 64.7146 23.1702C64.2556 22.9651 63.8723 22.6794 63.5647 22.3132C63.2571 21.947 63.0251 21.5222 62.8689 21.0388C62.7175 20.5505 62.6418 20.0232 62.6418 19.4568V19.2664C62.6418 18.7048 62.7175 18.1799 62.8689 17.6917C63.0251 17.2034 63.2571 16.7761 63.5647 16.4099C63.8723 16.0437 64.2532 15.7605 64.7073 15.5603C65.1662 15.3552 65.7034 15.2527 66.3186 15.2527C66.968 15.2527 67.5417 15.3772 68.0398 15.6262C68.5427 15.8752 68.9358 16.2341 69.219 16.7029C69.5022 17.1667 69.6438 17.7258 69.6438 18.3801H67.4905C67.4905 18.1262 67.4441 17.8992 67.3513 17.699C67.2634 17.4939 67.1267 17.3328 66.9411 17.2156C66.7605 17.0935 66.5359 17.0325 66.2673 17.0325C65.989 17.0325 65.7595 17.0935 65.5788 17.2156C65.4031 17.3328 65.2688 17.4963 65.176 17.7063C65.0832 17.9163 65.0198 18.1555 64.9856 18.4241C64.9514 18.6877 64.9343 18.9685 64.9343 19.2664V19.4568C64.9343 19.7595 64.9514 20.0476 64.9856 20.321C65.0198 20.5896 65.0832 20.8264 65.176 21.0315C65.2737 21.2366 65.4104 21.3977 65.5862 21.5149C65.7619 21.6321 65.9939 21.6907 66.282 21.6907ZM74.8074 15.3992V17.0032H70.1052V15.3992H74.8074ZM71.1819 13.4363H73.4743V20.8411C73.4743 21.0608 73.5012 21.2292 73.5549 21.3464C73.6086 21.4636 73.6965 21.5466 73.8186 21.5955C73.9407 21.6394 74.0969 21.6614 74.2873 21.6614C74.4241 21.6614 74.5412 21.6565 74.6389 21.6467C74.7366 21.637 74.8269 21.6248 74.9099 21.6101V23.2654C74.7146 23.3289 74.5071 23.3777 74.2873 23.4119C74.0676 23.4509 73.8284 23.4705 73.5696 23.4705C73.0764 23.4705 72.6492 23.3899 72.2878 23.2288C71.9314 23.0676 71.6579 22.8137 71.4675 22.467C71.2771 22.1155 71.1819 21.6589 71.1819 21.0974V13.4363ZM85.5959 12.6599H87.9836V19.6619C87.9836 20.4919 87.8078 21.1902 87.4563 21.7566C87.1096 22.323 86.6262 22.7502 86.0061 23.0383C85.386 23.3264 84.6682 23.4705 83.8528 23.4705C83.0325 23.4705 82.3098 23.3264 81.6848 23.0383C81.0647 22.7502 80.5764 22.323 80.22 21.7566C79.8684 21.1902 79.6926 20.4919 79.6926 19.6619V12.6599H82.0876V19.6619C82.0876 20.1208 82.156 20.4968 82.2927 20.7898C82.4343 21.0779 82.6369 21.2903 82.9006 21.427C83.1643 21.5588 83.4817 21.6248 83.8528 21.6248C84.2239 21.6248 84.5388 21.5588 84.7976 21.427C85.0613 21.2903 85.259 21.0779 85.3909 20.7898C85.5276 20.4968 85.5959 20.1208 85.5959 19.6619V12.6599ZM93.7917 21.1194C93.7917 20.9729 93.7453 20.8435 93.6526 20.7312C93.5647 20.6189 93.4035 20.5164 93.1692 20.4236C92.9397 20.3308 92.615 20.238 92.1951 20.1453C91.7995 20.0623 91.4309 19.9548 91.0891 19.823C90.7473 19.6863 90.4494 19.5227 90.1955 19.3323C89.9416 19.137 89.7439 18.9075 89.6023 18.6438C89.4607 18.3752 89.3899 18.0701 89.3899 17.7283C89.3899 17.3962 89.4607 17.0813 89.6023 16.7834C89.7488 16.4856 89.9587 16.2219 90.2322 15.9924C90.5105 15.7629 90.8474 15.5823 91.2429 15.4504C91.6433 15.3186 92.0974 15.2527 92.6052 15.2527C93.3035 15.2527 93.9065 15.3625 94.4143 15.5823C94.9221 15.7971 95.3127 16.0999 95.5862 16.4905C95.8596 16.8762 95.9963 17.3181 95.9963 17.8162H93.7112C93.7112 17.6111 93.6721 17.4329 93.594 17.2815C93.5159 17.1301 93.3962 17.0129 93.2351 16.9299C93.074 16.842 92.8616 16.7981 92.5979 16.7981C92.3928 16.7981 92.2121 16.8347 92.0559 16.908C91.9045 16.9763 91.7849 17.0715 91.697 17.1936C91.614 17.3157 91.5725 17.4573 91.5725 17.6184C91.5725 17.7307 91.5969 17.8333 91.6457 17.926C91.6994 18.0139 91.78 18.0969 91.8874 18.175C91.9997 18.2483 92.1438 18.3142 92.3196 18.3728C92.5002 18.4314 92.72 18.4875 92.9787 18.5413C93.5305 18.6438 94.0334 18.7878 94.4875 18.9734C94.9465 19.1589 95.3127 19.4153 95.5862 19.7424C95.8645 20.0696 96.0036 20.5017 96.0036 21.0388C96.0036 21.3904 95.9231 21.7126 95.7619 22.0056C95.6057 22.2986 95.3786 22.5549 95.0808 22.7747C94.7829 22.9944 94.4265 23.1653 94.0115 23.2874C93.5964 23.4094 93.1277 23.4705 92.6052 23.4705C91.8581 23.4705 91.2258 23.3362 90.7082 23.0676C90.1907 22.7991 89.8 22.4622 89.5364 22.0569C89.2776 21.6467 89.1482 21.2268 89.1482 20.7971H91.2942C91.3039 21.0608 91.3699 21.2756 91.4919 21.4417C91.6189 21.6077 91.7825 21.7297 91.9827 21.8079C92.1828 21.8811 92.4075 21.9177 92.6565 21.9177C92.9055 21.9177 93.113 21.8835 93.279 21.8152C93.4451 21.7468 93.572 21.6541 93.6599 21.5369C93.7478 21.4148 93.7917 21.2756 93.7917 21.1194Z" fill="url(#paint0_linear_83_431)"/>
<defs>
<linearGradient id="paint0_linear_83_431" x1="5" y1="16.5282" x2="126" y2="23.0282" gradientUnits="userSpaceOnUse">
<stop stop-color="#AA1056"/>
<stop offset="1" stop-color="#210B32"/>
</linearGradient>
</defs>
</svg>
