<svg width="147" height="52" viewBox="0 0 147 52" fill="none" xmlns="http://www.w3.org/2000/svg">
<g filter="url(#filter0_d_83_25)">
<rect x="4" width="139" height="41.7465" rx="12" fill="url(#paint0_linear_83_25)"/>
<path d="M38.3872 14.3218H42.4814C43.2969 14.3218 44.0024 14.4439 44.5981 14.688C45.1987 14.9322 45.6602 15.2935 45.9824 15.772C46.3047 16.2505 46.4658 16.8414 46.4658 17.5445C46.4658 18.1304 46.3706 18.6285 46.1802 19.0386C45.9897 19.4488 45.7212 19.7881 45.3745 20.0567C45.0327 20.3253 44.6323 20.5425 44.1733 20.7086L43.397 21.1334H39.9106L39.896 19.2803H42.4888C42.8452 19.2803 43.1406 19.2169 43.375 19.0899C43.6094 18.963 43.7852 18.7847 43.9023 18.5552C44.0244 18.3209 44.0854 18.0474 44.0854 17.7349C44.0854 17.4127 44.0244 17.1343 43.9023 16.9C43.7803 16.6656 43.5996 16.4874 43.3603 16.3653C43.126 16.2383 42.833 16.1749 42.4814 16.1749H40.7749V24.9859H38.3872V14.3218ZM44.2905 24.9859L41.8955 20.2471L44.415 20.2398L46.8467 24.876V24.9859H44.2905ZM51.7026 25.1324C51.0728 25.1324 50.5088 25.0323 50.0107 24.8321C49.5127 24.6319 49.0903 24.356 48.7436 24.0045C48.4019 23.648 48.1406 23.2379 47.96 22.774C47.7793 22.3101 47.689 21.8145 47.689 21.2872V21.0089C47.689 20.418 47.772 19.8736 47.938 19.3755C48.104 18.8775 48.3457 18.4454 48.6631 18.0792C48.9853 17.7081 49.3809 17.4224 49.8496 17.2222C50.3184 17.0172 50.853 16.9146 51.4536 16.9146C52.0151 16.9146 52.5156 17.0074 52.9551 17.1929C53.3945 17.3736 53.7656 17.6348 54.0684 17.9766C54.3711 18.3135 54.6006 18.7213 54.7568 19.1998C54.918 19.6734 54.9985 20.2056 54.9985 20.7964V21.7339H48.6118V20.2618H52.7573V20.086C52.7573 19.8077 52.7061 19.5635 52.6035 19.3536C52.5059 19.1436 52.3594 18.9825 52.1641 18.8702C51.9736 18.753 51.7319 18.6944 51.439 18.6944C51.1606 18.6944 50.9287 18.753 50.7432 18.8702C50.5576 18.9874 50.4087 19.1534 50.2964 19.3682C50.189 19.5782 50.1108 19.8248 50.062 20.108C50.0132 20.3863 49.9888 20.6866 49.9888 21.0089V21.2872C49.9888 21.5948 50.0303 21.8755 50.1133 22.1295C50.1963 22.3834 50.3184 22.6006 50.4795 22.7813C50.6406 22.962 50.8359 23.1036 51.0654 23.2061C51.2949 23.3087 51.5561 23.3599 51.8491 23.3599C52.2104 23.3599 52.5547 23.2916 52.8818 23.1548C53.209 23.0132 53.4922 22.7935 53.7314 22.4957L54.8008 23.7188C54.6396 23.9532 54.4126 24.1802 54.1196 24.4C53.8315 24.6148 53.4849 24.7906 53.0796 24.9273C52.6743 25.064 52.2153 25.1324 51.7026 25.1324ZM60.3086 23.0963V19.6978C60.3086 19.4586 60.272 19.2535 60.1987 19.0826C60.1255 18.9117 60.0107 18.7774 59.8545 18.6797C59.6982 18.5821 59.4956 18.5333 59.2466 18.5333C59.0366 18.5333 58.8535 18.5699 58.6973 18.6431C58.5459 18.7164 58.4287 18.8214 58.3457 18.9581C58.2676 19.0948 58.2285 19.2632 58.2285 19.4634H55.9434C55.9434 19.107 56.0239 18.775 56.1851 18.4673C56.3462 18.1597 56.5757 17.8887 56.8735 17.6544C57.1763 17.42 57.5376 17.2393 57.9575 17.1124C58.3774 16.9805 58.8486 16.9146 59.3711 16.9146C59.9912 16.9146 60.543 17.0196 61.0264 17.2296C61.5146 17.4346 61.9004 17.7447 62.1836 18.1597C62.4668 18.5699 62.6084 19.0875 62.6084 19.7125V23.0303C62.6084 23.5089 62.6353 23.8848 62.689 24.1583C62.7476 24.4268 62.8306 24.6612 62.938 24.8614V24.9859H60.6309C60.5234 24.7564 60.4429 24.4732 60.3892 24.1363C60.3354 23.7945 60.3086 23.4478 60.3086 23.0963ZM60.5942 20.1519L60.6089 21.4117H59.4736C59.2197 21.4117 59 21.4434 58.8144 21.5069C58.6338 21.5704 58.4873 21.6583 58.375 21.7706C58.2627 21.878 58.1797 22.0049 58.126 22.1514C58.0771 22.293 58.0527 22.4493 58.0527 22.6202C58.0527 22.7813 58.0918 22.9278 58.1699 23.0596C58.248 23.1866 58.3555 23.2867 58.4922 23.3599C58.6289 23.4332 58.7876 23.4698 58.9683 23.4698C59.2661 23.4698 59.52 23.4112 59.73 23.294C59.9448 23.1768 60.1108 23.0352 60.228 22.8692C60.3452 22.6983 60.4038 22.5396 60.4038 22.3931L60.9531 23.3453C60.8652 23.5406 60.7578 23.7432 60.6309 23.9532C60.5039 24.1583 60.3428 24.3511 60.1475 24.5318C59.9521 24.7076 59.7153 24.8516 59.437 24.9639C59.1636 25.0762 58.834 25.1324 58.4482 25.1324C57.9502 25.1324 57.4985 25.0323 57.0933 24.8321C56.688 24.627 56.3633 24.3463 56.1191 23.9898C55.8799 23.6334 55.7603 23.2232 55.7603 22.7593C55.7603 22.3443 55.8359 21.9756 55.9873 21.6534C56.1387 21.3311 56.3657 21.0577 56.6685 20.8331C56.9761 20.6085 57.3618 20.44 57.8257 20.3277C58.2895 20.2105 58.8315 20.1519 59.4517 20.1519H60.5942ZM68.7241 23.2134V13.7359H71.0239V24.9859H68.9585L68.7241 23.2134ZM63.7876 21.1187V20.9649C63.7876 20.3643 63.8535 19.8174 63.9853 19.3243C64.1221 18.8262 64.3198 18.399 64.5786 18.0425C64.8423 17.6812 65.167 17.4029 65.5527 17.2076C65.9385 17.0123 66.3804 16.9146 66.8784 16.9146C67.3374 16.9146 67.7378 17.0172 68.0796 17.2222C68.4214 17.4224 68.7119 17.7056 68.9512 18.0718C69.1953 18.4332 69.3931 18.8604 69.5444 19.3536C69.6958 19.8419 69.8105 20.3716 69.8887 20.9429V21.2066C69.8154 21.7535 69.7007 22.2637 69.5444 22.7374C69.3931 23.211 69.1953 23.6285 68.9512 23.9898C68.7119 24.3463 68.4189 24.627 68.0723 24.8321C67.7305 25.0323 67.3276 25.1324 66.8638 25.1324C66.3657 25.1324 65.9238 25.0323 65.5381 24.8321C65.1572 24.6319 64.8374 24.3511 64.5786 23.9898C64.3198 23.6285 64.1221 23.2037 63.9853 22.7154C63.8535 22.2271 63.7876 21.6949 63.7876 21.1187ZM66.0728 20.9649V21.1187C66.0728 21.4312 66.0947 21.7217 66.1387 21.9903C66.1875 22.2589 66.2656 22.4957 66.373 22.7007C66.4805 22.9058 66.6221 23.067 66.7978 23.1841C66.9736 23.2964 67.1885 23.3526 67.4424 23.3526C67.7842 23.3526 68.0649 23.2745 68.2847 23.1182C68.5044 22.9571 68.6704 22.7349 68.7827 22.4517C68.895 22.1685 68.9536 21.8389 68.9585 21.463V20.6939C68.9585 20.3814 68.9268 20.1006 68.8633 19.8516C68.7998 19.6026 68.7046 19.3926 68.5776 19.2217C68.4556 19.0508 68.3018 18.9214 68.1162 18.8336C67.9307 18.7408 67.7109 18.6944 67.457 18.6944C67.208 18.6944 66.9956 18.753 66.8198 18.8702C66.644 18.9825 66.5 19.1412 66.3877 19.3463C66.2803 19.5513 66.1997 19.793 66.146 20.0714C66.0972 20.3448 66.0728 20.6426 66.0728 20.9649ZM78.5752 18.7237V24.9859H76.29V17.0611H78.436L78.5752 18.7237ZM78.2822 20.7452L77.7036 20.7598C77.7036 20.2032 77.7695 19.6929 77.9014 19.2291C78.0381 18.7603 78.2358 18.3526 78.4946 18.0059C78.7534 17.6592 79.0732 17.3907 79.4541 17.2003C79.8398 17.0098 80.2842 16.9146 80.7871 16.9146C81.1387 16.9146 81.4585 16.9683 81.7466 17.0757C82.0347 17.1783 82.2812 17.3419 82.4863 17.5665C82.6963 17.7862 82.8574 18.0743 82.9697 18.4307C83.082 18.7823 83.1382 19.2047 83.1382 19.6978V24.9859H80.853V19.9761C80.853 19.6246 80.8091 19.3585 80.7212 19.1778C80.6382 18.9922 80.5161 18.8653 80.355 18.7969C80.1938 18.7286 80.001 18.6944 79.7764 18.6944C79.5322 18.6944 79.3149 18.7481 79.1245 18.8555C78.939 18.9581 78.7827 19.1021 78.6558 19.2877C78.5288 19.4732 78.4336 19.6905 78.3701 19.9395C78.3115 20.1885 78.2822 20.4571 78.2822 20.7452ZM82.9038 20.628L82.1787 20.6866C82.1787 20.1495 82.2422 19.6514 82.3691 19.1924C82.4961 18.7335 82.6865 18.3355 82.9404 17.9986C83.1943 17.6568 83.5093 17.3907 83.8853 17.2003C84.2661 17.0098 84.708 16.9146 85.2109 16.9146C85.582 16.9146 85.9189 16.9683 86.2217 17.0757C86.5293 17.1832 86.793 17.3565 87.0127 17.5958C87.2373 17.835 87.4106 18.15 87.5327 18.5406C87.6548 18.9263 87.7158 19.4 87.7158 19.9615V24.9859H85.416V19.9615C85.416 19.6148 85.3721 19.3511 85.2842 19.1705C85.2012 18.9898 85.0791 18.8653 84.918 18.7969C84.7617 18.7286 84.5737 18.6944 84.354 18.6944C84.1099 18.6944 83.8975 18.7457 83.7168 18.8482C83.5361 18.9459 83.3848 19.0826 83.2627 19.2584C83.1406 19.4293 83.0503 19.6319 82.9917 19.8663C82.9331 20.1006 82.9038 20.3546 82.9038 20.628ZM88.917 21.1041V20.9503C88.917 20.3692 89 19.8345 89.166 19.3463C89.332 18.8531 89.5762 18.4258 89.8984 18.0645C90.2207 17.7032 90.6162 17.4224 91.085 17.2222C91.5537 17.0172 92.0908 16.9146 92.6963 16.9146C93.3115 16.9146 93.8535 17.0172 94.3223 17.2222C94.7959 17.4224 95.1938 17.7032 95.5161 18.0645C95.8384 18.4258 96.0825 18.8531 96.2485 19.3463C96.4146 19.8345 96.4976 20.3692 96.4976 20.9503V21.1041C96.4976 21.6802 96.4146 22.2149 96.2485 22.7081C96.0825 23.1964 95.8384 23.6236 95.5161 23.9898C95.1938 24.3511 94.7983 24.6319 94.3296 24.8321C93.8608 25.0323 93.3213 25.1324 92.7109 25.1324C92.1055 25.1324 91.5659 25.0323 91.0923 24.8321C90.6187 24.6319 90.2207 24.3511 89.8984 23.9898C89.5762 23.6236 89.332 23.1964 89.166 22.7081C89 22.2149 88.917 21.6802 88.917 21.1041ZM91.2095 20.9503V21.1041C91.2095 21.4166 91.2339 21.7095 91.2827 21.983C91.3364 22.2564 91.4219 22.4957 91.5391 22.7007C91.6562 22.9058 91.8101 23.067 92.0005 23.1841C92.1958 23.2964 92.4326 23.3526 92.7109 23.3526C92.9893 23.3526 93.2236 23.2964 93.4141 23.1841C93.6045 23.067 93.7583 22.9058 93.8755 22.7007C93.9927 22.4957 94.0757 22.2564 94.1245 21.983C94.1782 21.7095 94.2051 21.4166 94.2051 21.1041V20.9503C94.2051 20.6426 94.1782 20.3546 94.1245 20.086C94.0757 19.8126 93.9927 19.5709 93.8755 19.3609C93.7583 19.1509 93.6021 18.9874 93.4067 18.8702C93.2163 18.753 92.9795 18.6944 92.6963 18.6944C92.4229 18.6944 92.1909 18.753 92.0005 18.8702C91.8101 18.9874 91.6562 19.1509 91.5391 19.3609C91.4219 19.5709 91.3364 19.8126 91.2827 20.086C91.2339 20.3546 91.2095 20.6426 91.2095 20.9503ZM99.9912 18.9068V24.9859H97.7061V17.0611H99.8521L99.9912 18.9068ZM102.357 17.0025L102.32 19.1339C102.223 19.1192 102.096 19.107 101.939 19.0972C101.783 19.0826 101.649 19.0753 101.537 19.0753C101.244 19.0753 100.99 19.1119 100.775 19.1851C100.565 19.2535 100.389 19.356 100.248 19.4927C100.111 19.6295 100.008 19.8004 99.9399 20.0054C99.8716 20.2056 99.8374 20.4376 99.8374 20.7012L99.4053 20.4888C99.4053 19.9664 99.4565 19.4879 99.5591 19.0533C99.6616 18.6187 99.8105 18.2427 100.006 17.9254C100.201 17.6031 100.44 17.3541 100.724 17.1783C101.007 17.0025 101.329 16.9146 101.69 16.9146C101.808 16.9146 101.927 16.9219 102.049 16.9366C102.171 16.9512 102.274 16.9732 102.357 17.0025ZM106.883 25.1324C106.253 25.1324 105.689 25.0323 105.191 24.8321C104.693 24.6319 104.271 24.356 103.924 24.0045C103.583 23.648 103.321 23.2379 103.141 22.774C102.96 22.3101 102.87 21.8145 102.87 21.2872V21.0089C102.87 20.418 102.953 19.8736 103.119 19.3755C103.285 18.8775 103.526 18.4454 103.844 18.0792C104.166 17.7081 104.562 17.4224 105.03 17.2222C105.499 17.0172 106.034 16.9146 106.634 16.9146C107.196 16.9146 107.696 17.0074 108.136 17.1929C108.575 17.3736 108.946 17.6348 109.249 17.9766C109.552 18.3135 109.781 18.7213 109.938 19.1998C110.099 19.6734 110.179 20.2056 110.179 20.7964V21.7339H103.792V20.2618H107.938V20.086C107.938 19.8077 107.887 19.5635 107.784 19.3536C107.687 19.1436 107.54 18.9825 107.345 18.8702C107.154 18.753 106.913 18.6944 106.62 18.6944C106.341 18.6944 106.109 18.753 105.924 18.8702C105.738 18.9874 105.589 19.1534 105.477 19.3682C105.37 19.5782 105.292 19.8248 105.243 20.108C105.194 20.3863 105.169 20.6866 105.169 21.0089V21.2872C105.169 21.5948 105.211 21.8755 105.294 22.1295C105.377 22.3834 105.499 22.6006 105.66 22.7813C105.821 22.962 106.017 23.1036 106.246 23.2061C106.476 23.3087 106.737 23.3599 107.03 23.3599C107.391 23.3599 107.735 23.2916 108.062 23.1548C108.39 23.0132 108.673 22.7935 108.912 22.4957L109.981 23.7188C109.82 23.9532 109.593 24.1802 109.3 24.4C109.012 24.6148 108.666 24.7906 108.26 24.9273C107.855 25.064 107.396 25.1324 106.883 25.1324Z" fill="white"/>
</g>
<defs>
<filter id="filter0_d_83_25" x="0" y="0" width="147" height="49.7465" filterUnits="userSpaceOnUse" color-interpolation-filters="sRGB">
<feFlood flood-opacity="0" result="BackgroundImageFix"/>
<feColorMatrix in="SourceAlpha" type="matrix" values="0 0 0 0 0 0 0 0 0 0 0 0 0 0 0 0 0 0 127 0" result="hardAlpha"/>
<feOffset dy="4"/>
<feGaussianBlur stdDeviation="2"/>
<feComposite in2="hardAlpha" operator="out"/>
<feColorMatrix type="matrix" values="0 0 0 0 0 0 0 0 0 0 0 0 0 0 0 0 0 0 0.25 0"/>
<feBlend mode="normal" in2="BackgroundImageFix" result="effect1_dropShadow_83_25"/>
<feBlend mode="normal" in="SourceGraphic" in2="effect1_dropShadow_83_25" result="shape"/>
</filter>
<linearGradient id="paint0_linear_83_25" x1="15.2598" y1="1.01376e-05" x2="118.703" y2="54.6381" gradientUnits="userSpaceOnUse">
<stop stop-color="#820F43"/>
<stop offset="1" stop-color="#02043A"/>
</linearGradient>
</defs>
</svg>
